<svg width="16" height="20" viewBox="0 0 16 20" fill="none" xmlns="http://www.w3.org/2000/svg">
<path d="M15.9721 18.4879V19.1793C15.9721 19.6288 15.6148 19.986 15.1654 19.986H1.73984C1.2904 19.986 0.933155 19.6288 0.933155 19.1793V18.4879C0.933155 18.0385 1.2904 17.6812 1.73984 17.6812H15.1654C15.6033 17.6697 15.9721 18.0385 15.9721 18.4879ZM15.1654 8.84227H1.73984C1.2904 8.84227 0.933155 9.19951 0.933155 9.64895V10.3404C0.933155 10.7898 1.2904 11.1471 1.73984 11.1471H15.1654C15.6148 11.1471 15.9721 10.7898 15.9721 10.3404V9.64895C15.9721 9.21104 15.6148 8.84227 15.1654 8.84227ZM15.1538 0.0263672H1.72832C1.27888 0.0263672 0.921631 0.383613 0.921631 0.833051V1.52449C0.921631 1.97393 1.27888 2.33118 1.72832 2.33118H15.1538C15.6033 2.33118 15.9605 1.97393 15.9605 1.52449V0.833051C15.9605 0.383613 15.6033 0.0263672 15.1538 0.0263672Z" fill="#F2F4F8"/>
</svg>
