<svg width="40" height="40" viewBox="0 0 40 40" fill="none" xmlns="http://www.w3.org/2000/svg">
<path d="M15.5601 34.9898H15.2701C15.2701 34.9898 15.2301 34.9798 15.2101 34.9798C14.7301 34.9498 14.2901 34.7898 13.8701 34.5598C13.3301 34.2598 12.8701 33.8698 12.4401 33.4198C11.5501 32.4898 10.7801 31.4498 10.1001 30.3598C9.15012 28.8398 8.47012 27.1898 7.98012 25.4598C7.63012 24.1998 7.42012 22.9198 7.38012 21.6098C7.38012 21.5798 7.38012 21.5398 7.37012 21.5098C7.37012 21.2898 7.37012 21.0598 7.37012 20.8398C7.37012 20.7998 7.38012 20.7498 7.38012 20.7098C7.40012 19.9498 7.50012 19.1898 7.68012 18.4498C8.05012 16.9298 8.74012 15.5898 9.83012 14.4598C10.6001 13.6598 11.5201 13.0598 12.5601 12.6598C13.2401 12.3998 13.9401 12.2498 14.6701 12.1998C15.1401 12.1698 15.6001 12.1998 16.0601 12.2898C16.6601 12.4098 17.2401 12.5898 17.8201 12.7998C18.4201 13.0198 19.0201 13.2398 19.6401 13.4098C20.0001 13.5098 20.3501 13.5298 20.7101 13.4098C21.2101 13.2398 21.7101 13.0898 22.2101 12.9098C22.8801 12.6698 23.5401 12.4298 24.2401 12.2798C24.8901 12.1398 25.5501 12.0598 26.2101 12.1198C26.9101 12.1798 27.6001 12.3098 28.2601 12.5198C29.5901 12.9498 30.7001 13.6898 31.5701 14.7898C31.6501 14.8898 31.7201 14.9998 31.8001 15.0998C31.7701 15.1198 31.7501 15.1298 31.7201 15.1498C31.2301 15.4498 30.7701 15.7998 30.3501 16.1998C29.7101 16.8198 29.2101 17.5298 28.8801 18.3598C28.6301 18.9898 28.5001 19.6398 28.4601 20.3098C28.4201 20.9998 28.4601 21.6798 28.6201 22.3498C28.8801 23.4898 29.4201 24.4798 30.2401 25.3198C30.9201 26.0198 31.6901 26.5898 32.6001 26.9598V26.9998C32.6001 26.9998 32.5701 27.0498 32.5701 27.0698C32.0301 28.6298 31.3001 30.0998 30.3301 31.4398C29.8601 32.0898 29.3901 32.7298 28.8401 33.3098C28.4101 33.7698 27.9301 34.1898 27.3701 34.4898C26.8301 34.7798 26.2601 34.9298 25.6501 34.9298C25.1101 34.9298 24.5901 34.8098 24.0901 34.6398C23.6601 34.4998 23.2401 34.3198 22.8101 34.1698C22.1101 33.9198 21.4001 33.7598 20.6601 33.7598C19.9501 33.7598 19.2501 33.8798 18.5801 34.0998C18.1501 34.2398 17.7301 34.4098 17.3001 34.5698C16.8401 34.7298 16.3801 34.8698 15.9001 34.9398C15.7801 34.9598 15.6701 34.9698 15.5501 34.9798L15.5601 34.9898Z" stroke="#0E2042" strokeWidth="1.5" strokeLinecap="round" strokeLinejoin="round"/>
<path d="M26.2801 5.00977C26.2801 5.34977 26.3101 5.67977 26.2901 6.01977C26.2601 6.75977 26.0601 7.45977 25.7501 8.11977C25.3201 9.04977 24.7001 9.84977 23.9501 10.5398C23.4001 11.0498 22.8001 11.4698 22.1101 11.7498C21.4601 12.0198 20.7801 12.1398 20.0701 12.0898C20.0601 12.0898 20.0501 12.0898 20.0301 12.0898C20.0301 11.9998 20.0101 11.9198 20.0101 11.8298C19.9601 10.9098 20.1401 10.0398 20.5201 9.19977C20.9801 8.15977 21.6401 7.24977 22.5401 6.53977C23.4401 5.82977 24.4501 5.34977 25.5701 5.10977C25.7601 5.06977 25.9601 5.05977 26.1601 5.02977C26.1801 5.02977 26.2001 5.02977 26.2201 5.01977C26.2401 5.01977 26.2601 5.01977 26.2801 5.01977V5.00977Z" stroke="#0E2042" strokeWidth="1.5" strokeLinecap="round" strokeLinejoin="round"/>
</svg>
