<svg width="40" height="40" viewBox="0 0 40 40" fill="none" xmlns="http://www.w3.org/2000/svg">
<path d="M6.94043 15.6399V9.98988C6.94043 9.50988 7.52043 9.12988 8.23043 9.12988H31.7804C32.4904 9.12988 33.0704 9.51988 33.0704 9.98988V15.6399" stroke="#0E2042" strokeWidth="1.5" strokeLinecap="round" strokeLinejoin="round"/>
<path d="M32.7604 18.5698H7.23039C5.94357 18.5698 4.90039 19.613 4.90039 20.8998V24.5298C4.90039 25.8166 5.94357 26.8598 7.23039 26.8598H32.7604C34.0472 26.8598 35.0904 25.8166 35.0904 24.5298V20.8998C35.0904 19.613 34.0472 18.5698 32.7604 18.5698Z" stroke="#0E2042" strokeWidth="1.5" strokeLinecap="round" strokeLinejoin="round"/>
<path d="M11 15.6399V13.8999C11 13.7499 11.2 13.6299 11.44 13.6299H19.55C19.79 13.6299 19.99 13.7499 19.99 13.8999V15.6399" stroke="#0E2042" strokeWidth="1.5" strokeLinecap="round" strokeLinejoin="round"/>
<path d="M19.6396 13.6299H28.6196C28.8296 13.6299 28.9896 13.7499 28.9896 13.8999V15.6399" stroke="#0E2042" strokeWidth="1.5" strokeLinecap="round" strokeLinejoin="round"/>
<path d="M10.7305 29.5801L9.29047 30.6801C8.65047 31.1701 7.73047 30.7101 7.73047 29.9101V29.5801" stroke="#0E2042" strokeWidth="1.5" strokeLinecap="round" strokeLinejoin="round"/>
<path d="M29.2695 29.5801L30.7095 30.6801C31.3495 31.1701 32.2695 30.7101 32.2695 29.9101V29.5801" stroke="#0E2042" strokeWidth="1.5" strokeLinecap="round" strokeLinejoin="round"/>
</svg>
