<svg width="40" height="40" viewBox="0 0 40 40" fill="none" xmlns="http://www.w3.org/2000/svg">
<path d="M19.9998 29.1696C26.1633 29.1696 31.1598 24.1731 31.1598 18.0096C31.1598 11.8461 26.1633 6.84961 19.9998 6.84961C13.8363 6.84961 8.83984 11.8461 8.83984 18.0096C8.83984 24.1731 13.8363 29.1696 19.9998 29.1696Z" stroke="#0E2042" strokeWidth="1.5" strokeLinecap="round" strokeLinejoin="round"/>
<path d="M25.3205 16.6803C25.1305 16.1003 24.5905 15.7103 23.9805 15.7103H22.3905C22.1305 15.7103 21.9105 15.5403 21.8305 15.3003L21.3405 13.7803C21.3405 13.7803 21.3405 13.7803 21.3405 13.7703C21.2905 13.6103 21.2005 13.4703 21.1005 13.3503C21.0605 13.3003 21.0205 13.2703 20.9705 13.2203C20.9005 13.1503 20.8205 13.0803 20.7305 13.0303C20.6705 12.9903 20.6105 12.9703 20.5505 12.9403C20.4605 12.9003 20.3705 12.8803 20.2705 12.8603C20.2105 12.8503 20.1405 12.8303 20.0805 12.8303C20.0505 12.8303 20.0305 12.8203 20.0005 12.8203C19.8905 12.8203 19.7805 12.8503 19.6805 12.8703C19.6505 12.8703 19.6205 12.8703 19.5905 12.8703C19.5905 12.8703 19.5905 12.8703 19.5805 12.8703C19.1605 13.0003 18.8105 13.3303 18.6705 13.7703L18.1805 15.2803C18.1005 15.5203 17.8705 15.6903 17.6205 15.6903H16.0305C15.4205 15.6903 14.8805 16.0803 14.6905 16.6603C14.5005 17.2403 14.7105 17.8703 15.2005 18.2303L16.4905 19.1703C16.7005 19.3203 16.7805 19.5903 16.7105 19.8303L16.2205 21.3403C16.0305 21.9203 16.2305 22.5503 16.7305 22.9103C16.9805 23.0903 17.2705 23.1803 17.5605 23.1803C17.8505 23.1803 18.1405 23.0903 18.3905 22.9103L19.6805 21.9803C19.8905 21.8303 20.1705 21.8303 20.3805 21.9803L21.6705 22.9103C21.8105 23.0103 21.9605 23.0803 22.1105 23.1203C22.5205 23.2403 22.9605 23.1703 23.3205 22.9103C23.8105 22.5503 24.0205 21.9203 23.8305 21.3403L23.3405 19.8303C23.2605 19.5903 23.3405 19.3203 23.5605 19.1703L24.8505 18.2303C25.3405 17.8703 25.5505 17.2403 25.3605 16.6603L25.3205 16.6803Z" fill="#0E2042"/>
<path d="M14.6105 31.3603L12.9605 33.0103C12.6105 33.3603 11.8005 33.0103 11.4505 32.3603L9.99047 29.6003C9.67047 29.0003 9.14047 28.4703 8.54047 28.1503L5.78047 26.6903C5.13047 26.3503 4.78047 25.5403 5.13047 25.1803L6.78047 23.5303" stroke="#0E2042" strokeWidth="1.5" strokeLinecap="round" strokeLinejoin="round"/>
<path d="M25.3896 31.3603L27.0396 33.0103C27.3896 33.3603 28.1996 33.0103 28.5496 32.3603L30.0096 29.6003C30.3296 29.0003 30.8596 28.4703 31.4596 28.1503L34.2197 26.6903C34.8697 26.3503 35.2196 25.5403 34.8696 25.1803L33.2197 23.5303" stroke="#0E2042" strokeWidth="1.5" strokeLinecap="round" strokeLinejoin="round"/>
</svg>
