<svg width="40" height="40" viewBox="0 0 40 40" fill="none" xmlns="http://www.w3.org/2000/svg">
<path d="M15.2703 25.9201L13.5203 29.3901C12.9303 30.5601 11.4603 30.9801 10.3403 30.2801L6.05027 27.6101C5.17027 27.0601 4.79027 25.9801 5.11027 24.9901C5.70027 23.2001 7.01027 20.3201 9.84027 17.6101C10.3203 17.1501 10.9903 16.9501 11.6503 17.0501C12.9403 17.2301 15.1303 17.7201 16.8303 19.0101C17.5603 19.5701 18.0703 20.3701 18.3203 21.2601V21.2901C18.5903 22.2701 18.6603 23.2801 18.5103 24.2801L18.1303 26.9401C18.0403 27.5701 17.6903 28.1101 17.2003 28.4501" stroke="#0E2042" strokeWidth="1.5" strokeLinecap="round" strokeLinejoin="round"/>
<path d="M19.1198 17.6602C19.1798 17.5602 19.2398 17.4602 19.2798 17.3502C19.5298 16.7302 19.1498 16.3802 18.6498 16.0902C18.3198 15.9002 17.9698 15.7202 17.6298 15.5502C16.9598 15.2102 16.2598 14.9002 15.5598 14.6302C14.9798 14.4102 14.3798 14.2102 13.7698 14.0702C13.1598 13.9302 12.5498 13.7602 11.9298 13.8102C11.3798 13.8502 11.1498 14.1502 11.0098 14.5502" stroke="#0E2042" strokeWidth="1.5" strokeLinecap="round" strokeLinejoin="round"/>
<path d="M29.3203 18.1498C29.2603 17.8998 29.1803 17.5998 29.0503 17.2598C28.8203 16.6498 28.1703 16.7798 27.6603 16.9098C25.7903 17.4198 23.9803 18.1498 22.2703 19.0498C21.8703 19.2598 21.4003 19.5398 21.3403 20.0398C21.3003 20.3598 21.4303 20.6698 21.6203 20.9398" stroke="#0E2042" strokeWidth="1.5" strokeLinecap="round" strokeLinejoin="round"/>
<path d="M13.7598 23.9602C13.7598 23.9602 14.3698 22.9102 15.8598 23.5002" stroke="#0E2042" strokeWidth="1.5" strokeLinecap="round" strokeLinejoin="round"/>
<path d="M30.59 26.2598L31.37 28.7598C31.71 29.8398 32.91 30.3698 33.93 29.8898C34.79 29.4898 35.2 28.4998 34.9 27.6098C34.65 26.8598 34.2 26.0898 33.68 25.3398C33.1 24.4898 32.44 23.6998 31.74 22.9298C31.48 22.6398 31.19 22.2998 30.92 21.9498C30.36 21.1898 29.42 20.8098 28.5 21.0098C27.43 21.2298 26 21.6098 24.59 22.2198C23.6 22.6498 22.94 23.5998 22.91 24.6798L22.87 26.1598C22.8 28.6498 23.28 31.1298 24.28 33.4198C24.64 34.2498 25.55 34.6898 26.43 34.4798L32.08 33.0698" stroke="#0E2042" strokeWidth="1.5" strokeLinecap="round" strokeLinejoin="round"/>
<path d="M25.2305 28.6798C25.6405 28.1998 26.5505 27.4198 28.3105 27.3398" stroke="#0E2042" strokeWidth="1.5" strokeLinecap="round" strokeLinejoin="round"/>
<path d="M16.46 12.41L20 5.47998L23.45 15.82" stroke="#0E2042" strokeWidth="1.5" strokeLinecap="round" strokeLinejoin="round"/>
</svg>
