<svg width="32" height="32" viewBox="0 0 32 32" fill="none" xmlns="http://www.w3.org/2000/svg">
<path d="M4 5.7417H7.04019C9.72035 5.7417 8.9523 9.50993 8.56828 11.134C8.04825 13.3182 8.20826 15.6463 10.8084 16.2783C11.3284 16.4064 11.8645 16.4464 12.3925 16.4464H21.6251C21.6251 16.4464 21.8811 16.4464 22.2651 16.4944C24.9773 16.8224 24.7693 20.3746 22.0411 20.3986C22.0091 20.3986 21.9691 20.3986 21.9371 20.3986H11.5765" stroke="#0E2042" strokeWidth="1.5" strokeLinecap="round" strokeLinejoin="round"/>
<path d="M12.0254 6.63037H26.6583C27.7224 6.63037 28.3624 7.82244 27.7704 8.7105L24.0501 14.2868" stroke="#0E2042" strokeWidth="1.5" strokeLinecap="round" strokeLinejoin="round"/>
<path d="M13.0087 26.2557C13.9941 26.2557 14.7928 25.4569 14.7928 24.4716C14.7928 23.4863 13.9941 22.6875 13.0087 22.6875C12.0234 22.6875 11.2246 23.4863 11.2246 24.4716C11.2246 25.4569 12.0234 26.2557 13.0087 26.2557Z" stroke="#0E2042" strokeWidth="1.5" strokeLinecap="round" strokeLinejoin="round"/>
<path d="M21.9286 26.2557C22.914 26.2557 23.7127 25.4569 23.7127 24.4716C23.7127 23.4863 22.914 22.6875 21.9286 22.6875C20.9433 22.6875 20.1445 23.4863 20.1445 24.4716C20.1445 25.4569 20.9433 26.2557 21.9286 26.2557Z" stroke="#0E2042" strokeWidth="1.5" strokeLinecap="round" strokeLinejoin="round"/>
<circle cx="24.001" cy="8" r="8" fill="#B8EA48"/>
<path d="M20.3749 12.1C19.9949 12.1 19.6182 12.03 19.2449 11.89C18.8715 11.7433 18.5515 11.5467 18.2849 11.3L18.7149 10.34C18.9615 10.5667 19.2282 10.7367 19.5149 10.85C19.8015 10.9633 20.0915 11.02 20.3849 11.02C20.9782 11.02 21.4315 10.8167 21.7449 10.41C22.0649 10.0033 22.2249 9.39667 22.2249 8.59V7.84H22.3449C22.2982 8.17333 22.1849 8.46333 22.0049 8.71C21.8249 8.95667 21.5982 9.14667 21.3249 9.28C21.0582 9.40667 20.7582 9.47 20.4249 9.47C20.0182 9.47 19.6515 9.37333 19.3249 9.18C19.0049 8.98667 18.7515 8.72 18.5649 8.38C18.3849 8.03333 18.2949 7.64333 18.2949 7.21C18.2949 6.75 18.3949 6.34333 18.5949 5.99C18.8015 5.63667 19.0815 5.36 19.4349 5.16C19.7882 4.95333 20.1949 4.85 20.6549 4.85C21.5482 4.85 22.2349 5.15667 22.7149 5.77C23.2015 6.37667 23.4449 7.23667 23.4449 8.35C23.4449 9.14333 23.3215 9.82 23.0749 10.38C22.8349 10.94 22.4849 11.3667 22.0249 11.66C21.5649 11.9533 21.0149 12.1 20.3749 12.1ZM20.7349 8.45C20.9815 8.45 21.1982 8.39667 21.3849 8.29C21.5715 8.18333 21.7182 8.03333 21.8249 7.84C21.9315 7.64 21.9849 7.41333 21.9849 7.16C21.9849 6.9 21.9315 6.67333 21.8249 6.48C21.7182 6.28667 21.5715 6.13667 21.3849 6.03C21.1982 5.91667 20.9815 5.86 20.7349 5.86C20.4882 5.86 20.2715 5.91667 20.0849 6.03C19.8982 6.13667 19.7515 6.28667 19.6449 6.48C19.5449 6.67333 19.4949 6.9 19.4949 7.16C19.4949 7.41333 19.5449 7.64 19.6449 7.84C19.7515 8.03333 19.8982 8.18333 20.0849 8.29C20.2715 8.39667 20.4882 8.45 20.7349 8.45ZM26.651 11.61V9.57H24.641V8.69H26.651V6.7H27.561V8.69H29.561V9.57H27.561V11.61H26.651Z" fill="#0E2042"/>
</svg>
