<svg width="40" height="40" viewBox="0 0 40 40" fill="none" xmlns="http://www.w3.org/2000/svg">
<path d="M17.35 13.2201C16.58 12.1201 12.85 8.53015 15.64 7.62015C16.47 7.35015 17.37 7.67015 18.21 7.46015C18.99 7.27015 19.2 6.46015 19.63 5.89015C20.47 4.77015 22.52 4.91015 23.71 5.25015C24.1 5.36015 24.47 5.55015 24.74 5.86015C26.81 8.22015 23.39 11.1801 22.46 13.2201" stroke="#0E2042" stroke-width="1.5" stroke-linecap="round" stroke-linejoin="round"/>
<path d="M16.3301 15.5601H23.6701" stroke="#0E2042" stroke-width="1.5" stroke-linecap="round" stroke-linejoin="round"/>
<path d="M15.1504 32.0498C15.1504 32.0498 20.0004 37.9498 24.8504 32.0498" stroke="#0E2042" stroke-width="1.5" stroke-linecap="round" stroke-linejoin="round"/>
<path d="M14.8299 34.9901C12.4399 34.6401 10.1099 33.1201 9.13988 30.8801C8.37988 29.1501 8.36988 27.1501 8.90988 25.3501C9.83988 22.2501 12.1899 19.5901 14.8399 17.8101C14.9399 17.7401 15.0499 17.6701 15.1599 17.6001" stroke="#0E2042" stroke-width="1.5" stroke-linecap="round" stroke-linejoin="round"/>
<path d="M25.1698 34.9901C27.5598 34.6401 29.8898 33.1201 30.8598 30.8801C31.6198 29.1501 31.6298 27.1501 31.0898 25.3501C30.1598 22.2501 27.8098 19.5901 25.1598 17.8101C25.0598 17.7401 24.9498 17.6701 24.8398 17.6001" stroke="#0E2042" stroke-width="1.5" stroke-linecap="round" stroke-linejoin="round"/>
<path d="M22.5396 20.8402C21.9196 20.5402 21.1996 20.3702 20.4996 20.3402C19.3996 20.3002 18.0396 20.7902 17.6296 21.8102C17.1896 22.9102 17.9096 23.7202 18.9096 24.2302C19.9096 24.7402 20.9896 24.9302 21.8396 25.5602C22.6896 26.1902 22.9796 27.6302 22.3096 28.5002C21.2096 29.9202 18.6096 29.7202 17.1396 28.9702" stroke="#0E2042" stroke-width="1.5" stroke-linecap="round" stroke-linejoin="round"/>
<path d="M20 19.02V30.92" stroke="#0E2042" stroke-width="1.5" stroke-linecap="round" stroke-linejoin="round"/>
</svg>
