<svg width="40" height="40" viewBox="0 0 40 40" fill="none" xmlns="http://www.w3.org/2000/svg">
<path d="M11.7198 5.33984H11.0998C7.73635 5.33984 5.00977 8.06643 5.00977 11.4298V12.0498C5.00977 15.4133 7.73635 18.1398 11.0998 18.1398H11.7198C15.0832 18.1398 17.8098 15.4133 17.8098 12.0498V11.4298C17.8098 8.06643 15.0832 5.33984 11.7198 5.33984Z" stroke="#0E2042" stroke-width="1.5" stroke-linecap="round" stroke-linejoin="round"/>
<path d="M32.6502 5.33984H24.5502C23.2523 5.33984 22.2002 6.39197 22.2002 7.68984V15.7898C22.2002 17.0877 23.2523 18.1398 24.5502 18.1398H32.6502C33.9481 18.1398 35.0002 17.0877 35.0002 15.7898V7.68984C35.0002 6.39197 33.9481 5.33984 32.6502 5.33984Z" stroke="#0E2042" stroke-width="1.5" stroke-linecap="round" stroke-linejoin="round"/>
<path d="M15.4598 21.8599H7.35977C6.0619 21.8599 5.00977 22.912 5.00977 24.2099V32.3099C5.00977 33.6077 6.0619 34.6599 7.35977 34.6599H15.4598C16.7576 34.6599 17.8098 33.6077 17.8098 32.3099V24.2099C17.8098 22.912 16.7576 21.8599 15.4598 21.8599Z" stroke="#0E2042" stroke-width="1.5" stroke-linecap="round" stroke-linejoin="round"/>
<path d="M28.9102 21.8599H28.2902C24.9268 21.8599 22.2002 24.5864 22.2002 27.9499V28.5699C22.2002 31.9333 24.9268 34.6599 28.2902 34.6599H28.9102C32.2736 34.6599 35.0002 31.9333 35.0002 28.5699V27.9499C35.0002 24.5864 32.2736 21.8599 28.9102 21.8599Z" stroke="#0E2042" stroke-width="1.5" stroke-linecap="round" stroke-linejoin="round"/>
</svg>
