<svg width="40" height="40" viewBox="0 0 40 40" fill="none" xmlns="http://www.w3.org/2000/svg">
<path d="M19.7497 18.6901L13.7497 31.4401C12.9697 33.0901 14.1797 34.9901 15.9997 34.9901H31.3897C33.1997 34.9901 34.3997 33.1301 33.6597 31.4801L27.6497 18.1201" stroke="#0E2042" strokeWidth="1.5" strokeLinecap="round" strokeLinejoin="round"/>
<path d="M10.1504 9.90005V11.81C10.1504 12.45 9.63035 12.97 8.99035 12.97H7.27035C6.63035 12.97 6.11035 12.45 6.11035 11.81V8.07005C6.11035 7.43005 6.63035 6.91005 7.27035 6.91005H7.31035C8.90035 6.91005 10.4604 6.55005 11.9504 5.97005C16.9304 4.04005 23.1104 5.50005 25.4704 6.20005C26.0204 6.36005 26.3604 6.90005 26.2804 7.47005C25.8904 10.07 26.1004 12.97 26.2804 14.6C26.3604 15.29 25.8204 15.88 25.1304 15.88H20.3504C20.1704 15.88 20.0004 15.84 19.8404 15.76L13.5204 12.63L10.5504 17.17C10.2104 17.69 10.5804 18.38 11.2004 18.38H13.6004C13.8604 18.38 14.1004 18.25 14.2404 18.04L15.1504 16.72" stroke="#0E2042" strokeWidth="1.5" strokeLinecap="round" strokeLinejoin="round"/>
</svg>
