<svg width="40" height="40" viewBox="0 0 40 40" fill="none" xmlns="http://www.w3.org/2000/svg">
<path d="M13.03 16.6598L12.41 17.2798C11.97 17.7198 11.72 18.3198 11.71 18.9498L11.62 29.8698C11.62 30.3898 11.59 31.1898 11.48 31.6998C11.13 33.3398 12.1 35.0398 13.51 35.0398H22.14H26.48C27.89 35.0398 28.86 33.3398 28.51 31.6998C28.41 31.2198 28.37 30.3598 28.37 29.8698L28.28 17.9698V10.3698C28.27 9.04981 27.2 7.97981 25.87 7.97981H22.63C21.99 7.97981 21.38 8.22981 20.93 8.68981L15.42 14.2398L13.81 8.24981C13.61 7.57981 13.81 6.85981 14.32 6.38981L15.35 5.42981C15.87 4.94981 16.63 4.80981 17.29 5.07981L19.46 5.97981" stroke="#0E2042" stroke-width="1.5" stroke-linecap="round" stroke-linejoin="round"/>
</svg>
