<svg width="40" height="40" viewBox="0 0 40 40" fill="none" xmlns="http://www.w3.org/2000/svg">
<path d="M13.2695 11.2398L16.8995 9.10981C17.1695 8.94981 17.5195 9.00981 17.7195 9.24981C18.0995 9.69981 18.5195 10.0598 18.9495 10.3498C20.9895 11.7398 23.7195 11.7398 25.7595 10.3498C26.1895 10.0598 26.6095 9.69981 26.9895 9.24981C27.1995 9.00981 27.5395 8.94981 27.8095 9.10981L34.6695 13.1198C34.9795 13.2998 35.0895 13.7098 34.8995 14.0198L32.5195 17.9698C32.3295 18.2798 31.9195 18.3798 31.6195 18.1798L30.3395 17.3698C29.9095 17.0998 29.3395 17.4098 29.3395 17.9198V28.4198C29.3395 28.7198 29.1395 28.9698 28.8595 29.0498C28.0995 29.2498 26.4595 29.5998 24.1995 29.7398" stroke="#0E2042" stroke-width="1.5" stroke-linecap="round" stroke-linejoin="round"/>
<path d="M25.2805 18.2699L23.3605 21.4499C23.2105 21.6999 22.8805 21.7799 22.6305 21.6199L21.6005 20.9699C21.2505 20.7499 20.8005 20.9999 20.8005 21.4099V29.8699C20.8005 30.1099 20.6405 30.3199 20.4105 30.3799C19.6405 30.5799 17.7705 30.9799 15.1805 30.9699C12.5905 30.9699 10.7205 30.5799 9.95048 30.3799C9.72048 30.3199 9.56048 30.1099 9.56048 29.8699V21.4099C9.56048 20.9999 9.11048 20.7499 8.76048 20.9699L7.73048 21.6199C7.48048 21.7799 7.15048 21.6999 7.00048 21.4499L5.08048 18.2699C4.93048 18.0199 5.01048 17.6899 5.26048 17.5499L10.7805 14.3199C11.0005 14.1899 11.2805 14.2399 11.4405 14.4399C11.7505 14.7999 12.0905 15.0899 12.4305 15.3199C14.0705 16.4399 16.2705 16.4399 17.9105 15.3199C18.2505 15.0899 18.5905 14.7999 18.9005 14.4399C19.0705 14.2499 19.3405 14.1999 19.5605 14.3199L25.0805 17.5499C25.3305 17.6999 25.4105 18.0199 25.2605 18.2699H25.2805Z" stroke="#0E2042" stroke-width="1.5" stroke-linecap="round" stroke-linejoin="round"/>
</svg>
