<svg width="40" height="40" viewBox="0 0 40 40" fill="none" xmlns="http://www.w3.org/2000/svg">
<path d="M25.34 24.0302V33.5802C25.34 34.3602 24.72 35.0002 23.96 35.0002H22.17C21.41 35.0002 20.79 34.3602 20.79 33.5802V25.0602C20.79 24.5402 20.38 24.1102 19.87 24.1102H18.17C17.41 24.1102 16.79 23.4702 16.79 22.6902V21.1502C16.79 20.3702 17.41 19.7302 18.17 19.7302H19.87C20.38 19.7302 20.79 19.3102 20.79 18.7802V17.9602C20.79 16.4802 20.62 14.9902 21.24 13.6002C21.76 12.4302 22.71 11.5202 23.84 10.9902C25.22 10.3302 26.71 10.3202 28.2 10.3502C28.95 10.3702 29.56 11.0002 29.56 11.7702V12.8902C29.56 13.6002 29.05 14.1902 28.37 14.2902C28.26 14.3102 28.14 14.3302 28.03 14.3402C27.35 14.4602 26.63 14.6702 26.09 15.1302C25.4 15.7202 25.29 16.5902 25.26 17.4602C25.24 17.9102 25.27 18.3602 25.3 18.8202C25.33 19.3202 25.73 19.7102 26.22 19.7102H27.77C28.62 19.7102 29.27 20.4902 29.14 21.3602L28.64 24.5702" stroke="#0E2042" stroke-width="1.5" stroke-linecap="round" stroke-linejoin="round"/>
<path d="M17.2198 34.9801H12.3998C8.31977 34.9801 5.00977 31.6701 5.00977 27.5901V12.3901" stroke="#0E2042" stroke-width="1.5" stroke-linecap="round" stroke-linejoin="round"/>
<path d="M12.4004 5H27.6004C31.6804 5 34.9904 8.31 34.9904 12.39V27.59" stroke="#0E2042" stroke-width="1.5" stroke-linecap="round" stroke-linejoin="round"/>
</svg>
