<svg width="40" height="40" viewBox="0 0 40 40" fill="none" xmlns="http://www.w3.org/2000/svg">
<path d="M35 13.79C35 10.46 32.3 7.77002 28.98 7.77002H11.02C7.69 7.77002 5 10.47 5 13.79V23.19C5 26.52 7.7 29.21 11.02 29.21H25.07C26.06 29.21 27.03 29.41 27.94 29.81L33.31 32.14C34.11 32.49 35 31.9 35 31.03V19.69" stroke="#0E2042" stroke-width="1.5" stroke-linecap="round" stroke-linejoin="round"/>
<path d="M17.5801 14.8201C17.7101 13.0601 19.9501 12.3501 21.2501 13.0901C21.8701 13.4401 22.3001 14.1101 22.4001 14.8201C22.5101 15.6301 22.1301 16.3401 21.6201 16.9501C20.5901 18.1901 19.7001 19.3901 20.0401 21.1101" stroke="#0E2042" stroke-width="1.5" stroke-linecap="round" stroke-linejoin="round"/>
<path d="M20 24H20.01" stroke="#0E2042" stroke-width="1.5" stroke-linecap="round"/>
</svg>
