<svg width="32" height="32" viewBox="0 0 32 32" fill="none" xmlns="http://www.w3.org/2000/svg">
<path d="M18.3848 18.2881V23.7281C18.3848 24.4801 18.0008 25.1761 17.3608 25.5761L15.9848 26.4321C14.5368 27.3361 12.6568 26.2961 12.6568 24.5841V17.8001C12.6568 16.6001 11.6808 15.6241 10.4808 15.6241H7.91278C6.71278 15.6241 6.00078 14.6241 5.73678 13.4481L4.80078 7.7761C4.80078 6.5761 5.77678 5.6001 6.97678 5.6001H25.0168C26.2168 5.6001 27.1928 6.5761 27.1928 7.7761L26.2568 13.4481C26.0408 14.7041 25.2808 15.6241 24.0808 15.6241H18.3608" stroke="#0E2042" stroke-width="1.5" stroke-linecap="round" stroke-linejoin="round"/>
<circle cx="22.001" cy="10" r="8" fill="#B8EA48"/>
<path d="M18.3749 14.1C17.9949 14.1 17.6182 14.03 17.2449 13.89C16.8715 13.7433 16.5515 13.5467 16.2849 13.3L16.7149 12.34C16.9615 12.5667 17.2282 12.7367 17.5149 12.85C17.8015 12.9633 18.0915 13.02 18.3849 13.02C18.9782 13.02 19.4315 12.8167 19.7449 12.41C20.0649 12.0033 20.2249 11.3967 20.2249 10.59V9.84H20.3449C20.2982 10.1733 20.1849 10.4633 20.0049 10.71C19.8249 10.9567 19.5982 11.1467 19.3249 11.28C19.0582 11.4067 18.7582 11.47 18.4249 11.47C18.0182 11.47 17.6515 11.3733 17.3249 11.18C17.0049 10.9867 16.7515 10.72 16.5649 10.38C16.3849 10.0333 16.2949 9.64333 16.2949 9.21C16.2949 8.75 16.3949 8.34333 16.5949 7.99C16.8015 7.63667 17.0815 7.36 17.4349 7.16C17.7882 6.95333 18.1949 6.85 18.6549 6.85C19.5482 6.85 20.2349 7.15667 20.7149 7.77C21.2015 8.37667 21.4449 9.23667 21.4449 10.35C21.4449 11.1433 21.3215 11.82 21.0749 12.38C20.8349 12.94 20.4849 13.3667 20.0249 13.66C19.5649 13.9533 19.0149 14.1 18.3749 14.1ZM18.7349 10.45C18.9815 10.45 19.1982 10.3967 19.3849 10.29C19.5715 10.1833 19.7182 10.0333 19.8249 9.84C19.9315 9.64 19.9849 9.41333 19.9849 9.16C19.9849 8.9 19.9315 8.67333 19.8249 8.48C19.7182 8.28667 19.5715 8.13667 19.3849 8.03C19.1982 7.91667 18.9815 7.86 18.7349 7.86C18.4882 7.86 18.2715 7.91667 18.0849 8.03C17.8982 8.13667 17.7515 8.28667 17.6449 8.48C17.5449 8.67333 17.4949 8.9 17.4949 9.16C17.4949 9.41333 17.5449 9.64 17.6449 9.84C17.7515 10.0333 17.8982 10.1833 18.0849 10.29C18.2715 10.3967 18.4882 10.45 18.7349 10.45ZM24.651 13.61V11.57H22.641V10.69H24.651V8.7H25.561V10.69H27.561V11.57H25.561V13.61H24.651Z" fill="#0E2042"/>
</svg>
