<svg width="40" height="40" viewBox="0 0 40 40" fill="none" xmlns="http://www.w3.org/2000/svg">
<path d="M35.0004 18.7002V29.0602C35.0004 30.3802 33.9104 31.4502 32.5904 31.4202L28.4504 31.3302C28.1704 31.3302 27.9404 31.0902 27.9404 30.8102V24.6002" stroke="#0E2042" strokeWidth="1.5" strokeLinecap="round" strokeLinejoin="round"/>
<path d="M35 14.5501L27.59 20.2801L20.27 25.8901C20.11 26.0101 19.89 26.0101 19.73 25.8901L12.41 20.2801L5 14.9401V11.7301C5 9.21012 7.88 7.78012 9.89 9.30012L19.73 16.7701C19.89 16.8901 20.11 16.8901 20.26 16.7701L30.1 9.30012C32.11 7.78012 34.99 9.21012 34.99 11.7301V14.5501H35Z" stroke="#0E2042" strokeWidth="1.5" strokeLinecap="round" strokeLinejoin="round"/>
<path d="M12.06 24.6101V30.8201C12.06 31.1001 11.83 31.3301 11.55 31.3401L7.41 31.4301C6.09 31.4601 5 30.3901 5 29.0701V19.1001" stroke="#0E2042" strokeWidth="1.5" strokeLinecap="round" strokeLinejoin="round"/>
</svg>
