<svg width="40" height="40" viewBox="0 0 40 40" fill="none" xmlns="http://www.w3.org/2000/svg">
<path d="M28.2799 16.24C29.1799 17.87 28.2199 19.65 28.2199 19.65L22.0799 30.28C19.3399 34.49 14.6999 32.17 14.6999 32.17L7.35986 27.8C6.11986 26.84 5.46986 25.67 5.14986 24.55C4.64986 22.77 4.95986 20.86 5.84986 19.24L7.98986 15.54C9.38986 13.18 10.1299 11.98 10.5899 11.53C11.4799 10.66 12.8399 10.94 13.8799 11.53C15.0199 12.19 16.1799 12.84 17.2599 13.59C18.0499 14.13 18.8099 14.9 18.6199 15.95C18.4999 16.61 18.0799 17.17 17.7399 17.73C17.3299 18.41 16.9199 19.08 16.5099 19.76C15.6899 21.11 13.2999 25.06 12.4999 26.42" stroke="#0E2042" strokeWidth="1.5" strokeLinecap="round" strokeLinejoin="round"/>
<path d="M15.4102 26.8198C17.7702 27.9498 19.6602 25.4898 20.6902 23.9098C22.8202 20.6598 24.1902 17.2698 26.2402 13.9798C26.2402 13.9798 26.7302 13.1798 27.7102 12.5098" stroke="#0E2042" strokeWidth="1.5" strokeLinecap="round" strokeLinejoin="round"/>
<path d="M16.5596 9.90991C16.8196 9.58991 17.1496 9.21991 17.5396 8.86991C18.8496 7.68991 20.5996 7.08991 22.3496 7.20991C23.3096 7.26991 24.4596 7.52991 25.6296 8.21991L32.0896 11.9799C32.8696 12.4299 33.5696 13.0099 34.0896 13.7399C34.9096 14.8699 35.5896 16.6299 34.5896 18.8799C33.0296 21.6099 31.4996 24.3899 29.8296 27.0399C28.9996 28.3499 27.6396 28.6699 26.3096 28.3199" stroke="#0E2042" strokeWidth="1.5" strokeLinecap="round" strokeLinejoin="round"/>
</svg>
