<svg width="40" height="40" viewBox="0 0 40 40" fill="none" xmlns="http://www.w3.org/2000/svg">
<path d="M15.4403 17.0498C15.2003 17.1498 15.0503 17.3898 15.0503 17.6398V19.4798C15.0503 20.0698 14.3203 20.3598 13.9203 19.9098L8.92033 14.3298C8.55033 13.9098 8.84033 13.2498 9.40033 13.2498H11.2103C11.3503 13.2498 11.4903 13.1998 11.6003 13.1198L18.5203 7.86976C19.6203 7.03976 20.9003 6.46976 22.2603 6.22976L23.1203 6.06976C24.0303 5.90976 24.7703 6.78976 24.4403 7.64976L24.3503 7.88976C24.0003 8.81976 23.9203 9.83976 24.1203 10.8098L24.8903 14.5198C25.0603 15.3498 24.6803 16.1898 23.9503 16.6098L22.2403 17.5998C21.9403 17.7698 21.5203 17.7698 21.1103 17.6598C20.5203 17.5098 20.0103 17.1598 19.6103 16.6998L17.2403 13.9898" stroke="#0E2042" stroke-width="1.5" stroke-linecap="round" stroke-linejoin="round"/>
<path d="M22.7598 20.5402L30.5598 32.8302C30.9998 33.5302 31.7698 33.9502 32.5898 33.9502C33.9198 33.9502 34.9898 32.8702 34.9898 31.5502V29.1002C34.9898 28.5602 34.8098 28.0302 34.4698 27.6102L26.8198 18.2202" stroke="#0E2042" stroke-width="1.5" stroke-linecap="round" stroke-linejoin="round"/>
<path d="M8.98047 33.9502V25.4102" stroke="#0E2042" stroke-width="1.5" stroke-linecap="round" stroke-linejoin="round"/>
<path d="M6.33984 24.9399H11.6198" stroke="#0E2042" stroke-width="1.5" stroke-linecap="round" stroke-linejoin="round"/>
</svg>
