<svg width="40" height="40" viewBox="0 0 40 40" fill="none" xmlns="http://www.w3.org/2000/svg">
<path d="M19.9996 34.9401C28.2507 34.9401 34.9396 28.2512 34.9396 20.0001C34.9396 11.7489 28.2507 5.06006 19.9996 5.06006C11.7484 5.06006 5.05957 11.7489 5.05957 20.0001C5.05957 28.2512 11.7484 34.9401 19.9996 34.9401Z" stroke="#0E2042" stroke-width="1.5" stroke-linecap="round" stroke-linejoin="round"/>
<path d="M23.6301 25.42L22.6201 26.18C21.1301 27.3 19.0101 26.24 19.0101 24.38V18.65C19.0101 18.38 18.7001 18.28 18.5001 18.46C17.7601 19.11 17.8301 19.26 16.3701 19.96" stroke="#0E2042" stroke-width="1.5" stroke-linecap="round" stroke-linejoin="round"/>
<path d="M20.3202 15.0902C20.2002 15.5802 19.7902 15.9802 19.3002 16.0902C18.7602 16.2102 18.2602 16.0202 17.9402 15.6602C17.6602 15.3402 17.5302 14.9002 17.6302 14.4302C17.7402 13.9302 18.1402 13.5202 18.6302 13.4002C19.6602 13.1502 20.5602 14.0602 20.3202 15.0902Z" fill="#0E2042"/>
</svg>
