<svg width="40" height="40" viewBox="0 0 40 40" fill="none" xmlns="http://www.w3.org/2000/svg">
<path d="M12.4004 5H27.6104C31.7004 5 35.0104 8.31 35.0104 12.4V27.61" stroke="#0E2042" stroke-width="1.5" stroke-linecap="round" stroke-linejoin="round"/>
<path d="M27.6002 35.0001H12.3902C8.30023 35.0001 4.99023 31.6901 4.99023 27.6001V12.3901" stroke="#0E2042" stroke-width="1.5" stroke-linecap="round" stroke-linejoin="round"/>
<path d="M20.0001 26.9201C23.8219 26.9201 26.9201 23.8219 26.9201 20.0001C26.9201 16.1783 23.8219 13.0801 20.0001 13.0801C16.1783 13.0801 13.0801 16.1783 13.0801 20.0001C13.0801 23.8219 16.1783 26.9201 20.0001 26.9201Z" stroke="#0E2042" stroke-width="1.5" stroke-linecap="round" stroke-linejoin="round"/>
<path d="M30.6696 11.2899C30.5296 11.8599 30.0596 12.3299 29.4896 12.4499C28.8596 12.5899 28.2796 12.3699 27.9096 11.9499C27.5896 11.5799 27.4296 11.0699 27.5496 10.5199C27.6796 9.93995 28.1396 9.46995 28.7196 9.32995C29.9196 9.03995 30.9696 10.0899 30.6796 11.2899H30.6696Z" fill="#0E2042"/>
</svg>
