<svg width="40" height="40" viewBox="0 0 40 40" fill="none" xmlns="http://www.w3.org/2000/svg">
<path d="M13.2096 28.7798V33.1798C13.2096 34.1798 12.3996 34.9898 11.3996 34.9898C10.3996 34.9898 9.59961 34.1798 9.59961 33.1798V28.7798" stroke="#0E2042" stroke-width="1.5" stroke-linecap="round" stroke-linejoin="round"/>
<path d="M30.8004 28.3799V32.7799C30.8004 33.7799 29.9904 34.5899 29.0004 34.5899C28.0104 34.5899 27.1904 33.7799 27.1904 32.7799V28.3799" stroke="#0E2042" stroke-width="1.5" stroke-linecap="round" stroke-linejoin="round"/>
<path d="M8.69043 25.6001H13.7204" stroke="#0E2042" stroke-width="1.5" stroke-linecap="round" stroke-linejoin="round"/>
<path d="M26.2803 25.2102L31.3103 25.2002" stroke="#0E2042" stroke-width="1.5" stroke-linecap="round" stroke-linejoin="round"/>
<path d="M11.1997 22.42V19.11C11.1997 16.9 11.0097 14.63 11.6597 12.48C12.5097 9.67 14.4697 7.29 17.1197 6.02C18.6797 5.27 20.4197 4.94 22.1497 5.02C23.1697 5.07 24.1997 5.24 25.1697 5.57C26.1697 5.91 27.3397 6.4 27.6297 7.53C27.8797 8.5 27.2997 9.53 26.2997 9.72C24.6397 10.04 22.9497 10.28 21.3197 10.72C19.9997 11.08 18.6497 11.77 18.1897 13.15C17.9997 13.73 18.0097 14.38 18.2897 14.92C18.9897 16.25 21.0597 15.95 22.3197 15.95C24.5997 15.96 26.7897 16.8 27.8797 18.94C28.4397 20.04 28.5497 21.2 28.6697 22.41" stroke="#0E2042" stroke-width="1.5" stroke-linecap="round" stroke-linejoin="round"/>
</svg>
