<svg width="40" height="40" viewBox="0 0 40 40" fill="none" xmlns="http://www.w3.org/2000/svg">
<path d="M19.5508 9.77881C18.1719 9.77881 17.0508 8.66056 17.0508 7.27238C17.0508 5.88421 18.1719 4.77881 19.5508 4.77881C20.9296 4.77881 22.0508 5.89706 22.0508 7.27238C22.0508 8.6477 20.9296 9.77881 19.5508 9.77881Z" fill="#0E2042"/>
<path d="M19.5508 22.8286C18.1719 22.8286 17.0508 21.7104 17.0508 20.3222C17.0508 18.934 18.1719 17.8286 19.5508 17.8286C20.9296 17.8286 22.0508 18.9469 22.0508 20.3222C22.0508 21.6975 20.9296 22.8286 19.5508 22.8286Z" fill="#0E2042"/>
<path d="M19.5508 35.8794C18.1719 35.8794 17.0508 34.7611 17.0508 33.373C17.0508 31.9848 18.1719 30.8794 19.5508 30.8794C20.9296 30.8794 22.0508 31.9976 22.0508 33.373C22.0508 34.7483 20.9296 35.8794 19.5508 35.8794Z" fill="#0E2042"/>
</svg>
