<svg width="40" height="40" viewBox="0 0 40 40" fill="none" xmlns="http://www.w3.org/2000/svg">
<path d="M20.0002 23.0501H11.8902C11.2602 23.0501 10.7402 22.5601 10.7402 21.9501V18.1201" stroke="#0E2042" stroke-width="1.5" stroke-linecap="round" stroke-linejoin="round"/>
<path d="M20 13.1899H28.11C28.74 13.1899 29.26 13.6799 29.26 14.2899V18.1199" stroke="#0E2042" stroke-width="1.5" stroke-linecap="round" stroke-linejoin="round"/>
<path d="M7.32031 24.84V11.48C7.32031 10.39 8.27031 9.5 9.44031 9.5H30.5703C31.7403 9.5 32.6903 10.38 32.6903 11.48V24.84" stroke="#0E2042" stroke-width="1.5" stroke-linecap="round" stroke-linejoin="round"/>
<path d="M33.9402 27.5298H6.06016C5.25016 27.5298 4.74016 28.3998 5.14016 29.0998L5.63016 29.9598C5.82016 30.2898 6.17016 30.4898 6.55016 30.4898H33.4402C33.8202 30.4898 34.1702 30.2898 34.3602 29.9598L34.8502 29.0998C35.2502 28.3998 34.7402 27.5298 33.9302 27.5298H33.9402Z" stroke="#0E2042" stroke-width="1.5" stroke-linecap="round" stroke-linejoin="round"/>
</svg>
