<svg width="40" height="40" viewBox="0 0 40 40" fill="none" xmlns="http://www.w3.org/2000/svg">
<path d="M32.65 5H7.35C6.05213 5 5 6.05213 5 7.35V32.65C5 33.9479 6.05213 35 7.35 35H32.65C33.9479 35 35 33.9479 35 32.65V7.35C35 6.05213 33.9479 5 32.65 5Z" stroke="#0E2042" stroke-width="1.5" stroke-linecap="round" stroke-linejoin="round"/>
<path d="M23.9396 7.87012V15.7401C23.9396 16.6201 22.9996 17.1701 22.2296 16.7501L20.5596 15.8301C20.2096 15.6401 19.7896 15.6401 19.4396 15.8301L17.7696 16.7501C16.9996 17.1701 16.0596 16.6201 16.0596 15.7401V7.87012" stroke="#0E2042" stroke-width="1.5" stroke-linecap="round" stroke-linejoin="round"/>
<path d="M30.0596 29.7798H22.1396" stroke="#0E2042" stroke-width="1.5" stroke-linecap="round" stroke-linejoin="round"/>
</svg>
