<svg width="40" height="40" viewBox="0 0 40 40" fill="none" xmlns="http://www.w3.org/2000/svg">
<path d="M18.3899 21.0202C17.6499 21.0302 16.8999 20.9602 16.1599 21.0902C15.3799 21.2302 14.8899 21.6802 14.7499 22.4502C14.4999 23.8302 14.2799 25.2102 14.0599 26.6002C13.8099 28.1402 13.5699 29.6902 13.3299 31.2302C13.2899 31.4702 13.1999 31.5802 12.9299 31.5802C11.3799 31.5802 9.81991 31.5802 8.26992 31.5802C7.65992 31.5802 7.32991 31.1702 7.41991 30.5502C8.14991 25.9002 8.88991 21.2402 9.61991 16.5902C10.1599 13.1702 10.6899 9.75018 11.2399 6.34018C11.3599 5.56018 11.8699 5.14018 12.6799 5.14018C14.2099 5.13018 15.7399 5.12018 17.2699 5.13018C19.0699 5.13018 20.8699 5.08018 22.6699 5.18018C24.4599 5.29018 26.1399 5.73018 27.5999 6.82018C28.8199 7.72018 29.4599 8.99018 29.5499 10.4702C29.6999 13.2402 28.9799 15.7802 27.2399 17.9602C25.9599 19.5702 24.1899 20.3802 22.2099 20.7702C20.9399 21.0202 19.6599 21.0502 18.3799 21.0202H18.3899Z" stroke="#0E2042" strokeWidth="1.5" strokeLinecap="round" strokeLinejoin="round"/>
<path d="M32.35 15.3101C32.45 15.6201 32.51 15.9501 32.54 16.2901C32.77 18.8701 32.19 21.2701 30.67 23.3801C29.42 25.1301 27.61 26.0101 25.54 26.4001C24.58 26.5801 23.61 26.6201 22.64 26.6101C21.65 26.6101 21.28 26.9001 21.11 27.8901C20.92 28.9601 20.76 30.0401 20.59 31.1101C20.45 32.0001 20.32 32.9001 20.17 33.7901C20.05 34.5201 19.61 34.8801 18.88 34.8801C18.24 34.8801 17.61 34.8801 16.97 34.8801C16.31 34.8801 14.12 34.8801 13.46 34.8801" stroke="#0E2042" strokeWidth="1.5" strokeLinecap="round" strokeLinejoin="round"/>
</svg>
