<svg width="40" height="40" viewBox="0 0 40 40" fill="none" xmlns="http://www.w3.org/2000/svg">
<path d="M9 32.143C9 33.5312 7.88175 34.6494 6.49357 34.6494C5.1054 34.6494 4 33.5312 4 32.143C4 30.7548 5.11825 29.6494 6.49357 29.6494C7.86889 29.6494 9 30.7677 9 32.143Z" fill="#0E2042"/>
<path d="M17.7002 32.143C17.7002 33.5312 16.5819 34.6494 15.1938 34.6494C13.8056 34.6494 12.7002 33.5312 12.7002 32.143C12.7002 30.7548 13.8184 29.6494 15.1938 29.6494C16.5691 29.6494 17.7002 30.7677 17.7002 32.143Z" fill="#0E2042"/>
<path d="M26.4004 32.143C26.4004 33.5312 25.2821 34.6494 23.894 34.6494C22.5058 34.6494 21.4004 33.5312 21.4004 32.143C21.4004 30.7548 22.5186 29.6494 23.894 29.6494C25.2693 29.6494 26.4004 30.7677 26.4004 32.143Z" fill="#0E2042"/>
<path d="M35.0996 32.143C35.0996 33.5312 33.9814 34.6494 32.5932 34.6494C31.205 34.6494 30.0996 33.5312 30.0996 32.143C30.0996 30.7548 31.2179 29.6494 32.5932 29.6494C33.9685 29.6494 35.0996 30.7677 35.0996 32.143Z" fill="#0E2042"/>
<path d="M9 24.2662C9 25.6415 7.88175 26.7598 6.49357 26.7598C5.1054 26.7598 4 25.6415 4 24.2662C4 22.8909 5.11825 21.7598 6.49357 21.7598C7.86889 21.7598 9 22.8909 9 24.2662Z" fill="#0E2042"/>
<path d="M17.7002 24.2662C17.7002 25.6415 16.5819 26.7598 15.1938 26.7598C13.8056 26.7598 12.7002 25.6415 12.7002 24.2662C12.7002 22.8909 13.8184 21.7598 15.1938 21.7598C16.5691 21.7598 17.7002 22.8909 17.7002 24.2662Z" fill="#0E2042"/>
<path d="M26.4004 24.2662C26.4004 25.6415 25.2821 26.7598 23.894 26.7598C22.5058 26.7598 21.4004 25.6415 21.4004 24.2662C21.4004 22.8909 22.5186 21.7598 23.894 21.7598C25.2693 21.7598 26.4004 22.8909 26.4004 24.2662Z" fill="#0E2042"/>
<path d="M35.0996 24.2662C35.0996 25.6415 33.9814 26.7598 32.5932 26.7598C31.205 26.7598 30.0996 25.6415 30.0996 24.2662C30.0996 22.8909 31.2179 21.7598 32.5932 21.7598C33.9685 21.7598 35.0996 22.8909 35.0996 24.2662Z" fill="#0E2042"/>
<path d="M9 16.3735C9 17.7616 7.88175 18.8799 6.49357 18.8799C5.1054 18.8799 4 17.7616 4 16.3735C4 14.9853 5.11825 13.8799 6.49357 13.8799C7.86889 13.8799 9 14.9981 9 16.3735Z" fill="#0E2042"/>
<path d="M17.7002 16.3735C17.7002 17.7616 16.5819 18.8799 15.1938 18.8799C13.8056 18.8799 12.7002 17.7616 12.7002 16.3735C12.7002 14.9853 13.8184 13.8799 15.1938 13.8799C16.5691 13.8799 17.7002 14.9981 17.7002 16.3735Z" fill="#0E2042"/>
<path d="M26.4004 16.3735C26.4004 17.7616 25.2821 18.8799 23.894 18.8799C22.5058 18.8799 21.4004 17.7616 21.4004 16.3735C21.4004 14.9853 22.5186 13.8799 23.894 13.8799C25.2693 13.8799 26.4004 14.9981 26.4004 16.3735Z" fill="#0E2042"/>
<path d="M35.0996 16.3735C35.0996 17.7616 33.9814 18.8799 32.5932 18.8799C31.205 18.8799 30.0996 17.7616 30.0996 16.3735C30.0996 14.9853 31.2179 13.8799 32.5932 13.8799C33.9685 13.8799 35.0996 14.9981 35.0996 16.3735Z" fill="#0E2042"/>
<path d="M9 8.49357C9 9.8689 7.88175 11 6.49357 11C5.1054 11 4 9.8689 4 8.49357C4 7.11825 5.11825 6 6.49357 6C7.86889 6 9 7.11825 9 8.49357Z" fill="#0E2042"/>
<path d="M17.7002 8.49357C17.7002 9.86889 16.5819 11 15.1938 11C13.8056 11 12.7002 9.86889 12.7002 8.49357C12.7002 7.11825 13.8184 6 15.1938 6C16.5691 6 17.7002 7.11825 17.7002 8.49357Z" fill="#0E2042"/>
<path d="M26.4004 8.49357C26.4004 9.8689 25.2821 11 23.894 11C22.5058 11 21.4004 9.8689 21.4004 8.49357C21.4004 7.11825 22.5186 6 23.894 6C25.2693 6 26.4004 7.11825 26.4004 8.49357Z" fill="#0E2042"/>
<path d="M35.0996 8.49357C35.0996 9.8689 33.9814 11 32.5932 11C31.205 11 30.0996 9.8689 30.0996 8.49357C30.0996 7.11825 31.2179 6 32.5932 6C33.9685 6 35.0996 7.11825 35.0996 8.49357Z" fill="#0E2042"/>
</svg>
