<svg width="40" height="40" viewBox="0 0 40 40" fill="none" xmlns="http://www.w3.org/2000/svg">
<path d="M9 8.49357C9 9.88175 7.88175 11 6.49357 11C5.1054 11 4 9.88175 4 8.49357C4 7.1054 5.11825 6 6.49357 6C7.86889 6 9 7.11825 9 8.49357Z" fill="#0E2042"/>
<path d="M22.0498 8.49357C22.0498 9.88175 20.9316 11 19.5434 11C18.1552 11 17.0498 9.88175 17.0498 8.49357C17.0498 7.1054 18.1681 6 19.5434 6C20.9187 6 22.0498 7.11825 22.0498 8.49357Z" fill="#0E2042"/>
<path d="M35.1006 8.49357C35.1006 9.88175 33.9823 11 32.5942 11C31.206 11 30.1006 9.88175 30.1006 8.49357C30.1006 7.1054 31.2188 6 32.5942 6C33.9695 6 35.1006 7.11825 35.1006 8.49357Z" fill="#0E2042"/>
<path d="M9 20.3291C9 21.708 7.88175 22.8291 6.49357 22.8291C5.1054 22.8291 4 21.708 4 20.3291C4 18.9502 5.11825 17.8291 6.49357 17.8291C7.86889 17.8291 9 18.9502 9 20.3291Z" fill="#0E2042"/>
<path d="M22.0498 20.3291C22.0498 21.708 20.9316 22.8291 19.5434 22.8291C18.1552 22.8291 17.0498 21.708 17.0498 20.3291C17.0498 18.9502 18.1681 17.8291 19.5434 17.8291C20.9187 17.8291 22.0498 18.9502 22.0498 20.3291Z" fill="#0E2042"/>
<path d="M35.1006 20.3291C35.1006 21.708 33.9823 22.8291 32.5942 22.8291C31.206 22.8291 30.1006 21.708 30.1006 20.3291C30.1006 18.9502 31.2188 17.8291 32.5942 17.8291C33.9695 17.8291 35.1006 18.9502 35.1006 20.3291Z" fill="#0E2042"/>
<path d="M9 32.1558C9 33.5312 7.88175 34.6494 6.49357 34.6494C5.1054 34.6494 4 33.5312 4 32.1558C4 30.7805 5.11825 29.6494 6.49357 29.6494C7.86889 29.6494 9 30.7677 9 32.1558Z" fill="#0E2042"/>
<path d="M22.0498 32.1558C22.0498 33.5312 20.9316 34.6494 19.5434 34.6494C18.1552 34.6494 17.0498 33.5312 17.0498 32.1558C17.0498 30.7805 18.1681 29.6494 19.5434 29.6494C20.9187 29.6494 22.0498 30.7677 22.0498 32.1558Z" fill="#0E2042"/>
<path d="M35.1006 32.1558C35.1006 33.5312 33.9823 34.6494 32.5942 34.6494C31.206 34.6494 30.1006 33.5312 30.1006 32.1558C30.1006 30.7805 31.2188 29.6494 32.5942 29.6494C33.9695 29.6494 35.1006 30.7677 35.1006 32.1558Z" fill="#0E2042"/>
</svg>
