<svg width="40" height="40" viewBox="0 0 40 40" fill="none" xmlns="http://www.w3.org/2000/svg">
<path d="M35 13.79C35 10.46 32.3 7.77002 28.98 7.77002H11.02C7.69 7.77002 5 10.47 5 13.79V23.19C5 26.52 7.7 29.21 11.02 29.21H25.07C26.06 29.21 27.03 29.41 27.94 29.81L33.31 32.14C34.11 32.49 35 31.9 35 31.03V19.69" stroke="#0E2042" stroke-width="1.5" stroke-linecap="round" stroke-linejoin="round"/>
<path d="M17.6797 22.7699C17.2397 23.0899 16.6397 22.6599 16.8097 22.1399L17.5297 19.9399C17.6297 19.6299 17.5297 19.2899 17.2597 19.0999L15.3897 17.7399C14.9497 17.4199 15.1797 16.7199 15.7197 16.7199H18.0397C18.3697 16.7199 18.6597 16.5099 18.7597 16.1999L19.4797 13.9999C19.6497 13.4799 20.3797 13.4799 20.5497 13.9999L21.2697 16.1999C21.3697 16.5099 21.6597 16.7199 21.9897 16.7199H24.3097C24.8597 16.7199 25.0797 17.4199 24.6397 17.7399L22.7697 19.0999C22.5097 19.2899 22.3997 19.6299 22.4997 19.9399L23.2197 22.1399C23.3897 22.6599 22.7897 23.0899 22.3497 22.7699L20.5897 21.3599C20.3197 21.1499 19.9497 21.1399 19.6797 21.3399L17.7197 22.7699H17.6797Z" fill="#0E2042" stroke="#0E2042" stroke-width="1.5" stroke-linecap="round" stroke-linejoin="round"/>
</svg>
