<svg width="40" height="40" viewBox="0 0 40 40" fill="none" xmlns="http://www.w3.org/2000/svg">
<path d="M4.09961 12.27V5.22998" stroke="#0E2042" strokeWidth="1.5" strokeLinecap="round" strokeLinejoin="round"/>
<path d="M17.3604 5.22998H34.8604C35.4304 5.22998 35.9004 5.68998 35.9004 6.26998V11.23C35.9004 11.8 35.4404 12.27 34.8604 12.27H17.3604" stroke="#0E2042" strokeWidth="1.5" strokeLinecap="round" strokeLinejoin="round"/>
<path d="M8.25973 5.22998H13.2297C13.7997 5.22998 14.2697 5.69998 14.2697 6.26998V33.73C14.2697 34.3 13.7997 34.77 13.2297 34.77H8.25973C7.68973 34.77 7.21973 34.3 7.21973 33.73V6.26998C7.21973 5.69998 7.68973 5.22998 8.25973 5.22998Z" stroke="#0E2042" strokeWidth="1.5" strokeLinecap="round" strokeLinejoin="round"/>
<path d="M18.6904 7.84998V5.22998" stroke="#0E2042" strokeWidth="1.5" strokeLinecap="round" strokeLinejoin="round"/>
<path d="M21.1699 8.99998V5.22998" stroke="#0E2042" strokeWidth="1.5" strokeLinecap="round" strokeLinejoin="round"/>
<path d="M23.6602 7.84998V5.22998" stroke="#0E2042" strokeWidth="1.5" strokeLinecap="round" strokeLinejoin="round"/>
<path d="M26.1396 8.99998V5.22998" stroke="#0E2042" strokeWidth="1.5" strokeLinecap="round" strokeLinejoin="round"/>
<path d="M28.6299 7.84998V5.22998" stroke="#0E2042" strokeWidth="1.5" strokeLinecap="round" strokeLinejoin="round"/>
<path d="M31.1201 8.99998V5.22998" stroke="#0E2042" strokeWidth="1.5" strokeLinecap="round" strokeLinejoin="round"/>
<path d="M33.5996 7.84998V5.22998" stroke="#0E2042" strokeWidth="1.5" strokeLinecap="round" strokeLinejoin="round"/>
</svg>
