<svg width="40" height="40" viewBox="0 0 40 40" fill="none" xmlns="http://www.w3.org/2000/svg">
<path d="M26.13 7.00977H13.86C13.02 7.00977 12.24 7.45976 11.82 8.18976L5.69 18.8098C5.27 19.5398 5.27 20.4398 5.69 21.1698L11.82 31.7898C12.24 32.5198 13.02 32.9698 13.86 32.9698H26.13C26.97 32.9698 27.75 32.5198 28.17 31.7898L34.3 21.1698C34.72 20.4398 34.72 19.5398 34.3 18.8098L28.17 8.18976C27.75 7.45976 26.97 7.00977 26.13 7.00977Z" stroke="#0E2042" strokeWidth="1.5" strokeLinecap="round" strokeLinejoin="round"/>
<path d="M20.0004 24.5999C22.5409 24.5999 24.6004 22.5404 24.6004 19.9999C24.6004 17.4594 22.5409 15.3999 20.0004 15.3999C17.4599 15.3999 15.4004 17.4594 15.4004 19.9999C15.4004 22.5404 17.4599 24.5999 20.0004 24.5999Z" stroke="#0E2042" strokeWidth="1.5" strokeLinecap="round" strokeLinejoin="round"/>
</svg>
