<svg width="40" height="40" viewBox="0 0 40 40" fill="none" xmlns="http://www.w3.org/2000/svg">
<path d="M26.2602 26.55V18.96C26.2602 18.44 26.6802 18.02 27.2002 18.02H34.0602C34.5802 18.02 35.0002 18.44 35.0002 18.96V31.46C35.0002 31.98 34.5802 32.4 34.0602 32.4H26.1902H13.8002H5.93023C5.41023 32.4 4.99023 31.98 4.99023 31.46V18.96C4.99023 18.44 5.41023 18.02 5.93023 18.02H12.7902C13.3102 18.02 13.7302 18.44 13.7302 18.96V26.55" stroke="#0E2042" strokeWidth="1.5" strokeLinecap="round" strokeLinejoin="round"/>
<path d="M8.91992 15.1701V9.0001C8.91992 8.2301 9.40992 7.6001 10.0099 7.6001H29.9999C30.5999 7.6001 31.0899 8.2201 31.0899 9.0001V15.1701" stroke="#0E2042" strokeWidth="1.5" strokeLinecap="round" strokeLinejoin="round"/>
<path d="M16.9102 20.5601H23.0902" stroke="#0E2042" strokeWidth="1.5" strokeLinecap="round" strokeLinejoin="round"/>
<path d="M16.9102 24.8999H23.0902" stroke="#0E2042" strokeWidth="1.5" strokeLinecap="round" strokeLinejoin="round"/>
</svg>
