<svg width="40" height="40" viewBox="0 0 40 40" fill="none" xmlns="http://www.w3.org/2000/svg">
<path d="M15.7699 24.1801C15.7699 24.9201 16.6399 25.3301 17.2099 24.8601L18.7899 23.5501C19.0899 23.3001 19.5099 23.2801 19.8399 23.5001L25.1799 27.0601C25.7099 27.4101 26.4299 27.1001 26.5299 26.4701L28.5499 14.3401C28.7199 13.3201 27.7099 12.5101 26.7499 12.9001L11.9699 18.9501C11.1999 19.2701 11.2599 20.3801 12.0599 20.6101L15.3799 21.5601C15.6299 21.6301 15.8899 21.5901 16.1099 21.4501L21.3099 17.9801" stroke="#0E2042" stroke-width="1.5" stroke-linecap="round" stroke-linejoin="round"/>
<path d="M27.6002 35.0001H12.3902C8.30023 35.0001 4.99023 31.6901 4.99023 27.6001V12.3901" stroke="#0E2042" stroke-width="1.5" stroke-linecap="round" stroke-linejoin="round"/>
<path d="M12.4004 5H27.6104C31.7004 5 35.0104 8.31 35.0104 12.4V27.61" stroke="#0E2042" stroke-width="1.5" stroke-linecap="round" stroke-linejoin="round"/>
</svg>
