<svg width="40" height="40" viewBox="0 0 40 40" fill="none" xmlns="http://www.w3.org/2000/svg">
<path d="M14.2496 10.5601C16.1496 10.5601 17.6896 12.1001 17.6896 14.0001C17.6896 15.9001 16.1496 17.4401 14.2496 17.4401C12.3496 17.4401 10.8096 15.9001 10.8096 14.0001C10.8096 12.1001 12.3496 10.5601 14.2496 10.5601ZM14.2496 9.06006C11.5196 9.06006 9.30957 11.2701 9.30957 14.0001C9.30957 16.7301 11.5196 18.9401 14.2496 18.9401C16.9796 18.9401 19.1896 16.7301 19.1896 14.0001C19.1896 11.2701 16.9796 9.06006 14.2496 9.06006Z" fill="#0E2042"/>
<path d="M23.4298 30.9403C23.4298 27.3803 22.0298 23.2203 18.7198 21.3803C18.0498 21.0103 17.2998 20.7303 16.4698 20.5703C16.4698 20.5703 14.7698 20.0903 12.0498 20.5703C11.2198 20.7203 10.4698 21.0003 9.79984 21.3803C6.49984 23.2203 5.08984 27.3803 5.08984 30.9403" stroke="#0E2042" stroke-width="1.5" stroke-linecap="round" stroke-linejoin="round"/>
<path d="M25.9 12.6001C27.8 12.6001 29.34 14.1401 29.34 16.0401C29.34 17.9401 27.8 19.4801 25.9 19.4801C24 19.4801 22.46 17.9401 22.46 16.0401C22.46 14.1401 24 12.6001 25.9 12.6001ZM25.9 11.1001C23.17 11.1001 20.96 13.3101 20.96 16.0401C20.96 18.7701 23.17 20.9801 25.9 20.9801C28.63 20.9801 30.84 18.7701 30.84 16.0401C30.84 13.3101 28.63 11.1001 25.9 11.1001Z" fill="#0E2042"/>
<path d="M23.6904 22.6098C26.4104 22.1298 28.1104 22.6098 28.1104 22.6098C28.9404 22.7698 29.6904 23.0498 30.3604 23.4198C33.0504 24.9198 34.4804 27.9498 34.9204 30.9398" stroke="#0E2042" stroke-width="1.5" stroke-linecap="round" stroke-linejoin="round"/>
</svg>
