<svg width="40" height="40" viewBox="0 0 40 40" fill="none" xmlns="http://www.w3.org/2000/svg">
<path d="M27.3504 35.1498H32.8204C34.0204 35.1498 34.9904 34.1798 34.9904 32.9798V23.3998C34.9904 18.8198 32.5804 14.4798 28.5204 12.3598C26.7404 11.4298 24.5304 10.8298 21.8004 10.9298C20.6304 10.9698 19.6904 11.9298 19.6904 13.1098V21.9198" stroke="#0E2042" stroke-width="1.5" stroke-linecap="round" stroke-linejoin="round"/>
<path d="M21.0799 35.1502C23.9518 35.1502 26.2799 32.8579 26.2799 30.0302C26.2799 27.2025 23.9518 24.9102 21.0799 24.9102C18.208 24.9102 15.8799 27.2025 15.8799 30.0302C15.8799 32.8579 18.208 35.1502 21.0799 35.1502Z" stroke="#0E2042" stroke-width="1.5" stroke-linecap="round" stroke-linejoin="round"/>
<path d="M25.7803 14.2798V18.3398C25.7803 19.8798 26.1903 21.4198 27.1003 22.6598C28.0103 23.8998 29.5203 25.0898 31.9803 25.1798" stroke="#0E2042" stroke-width="1.5" stroke-linecap="round" stroke-linejoin="round"/>
<path d="M22.8996 8.2501C22.8996 6.3701 21.3796 4.8501 19.4996 4.8501C17.9896 4.8501 16.6596 5.8501 16.2396 7.3101L10.0596 28.7301" stroke="#0E2042" stroke-width="1.5" stroke-linecap="round" stroke-linejoin="round"/>
<path d="M7.66977 31.48H10.5298C11.9998 31.48 13.1898 32.67 13.1898 34.14C13.1898 34.7 12.7398 35.15 12.1898 35.15H6.00977C5.45977 35.15 5.00977 34.7 5.00977 34.15C5.00977 32.68 6.19977 31.48 7.66977 31.48Z" stroke="#0E2042" stroke-width="1.5" stroke-linecap="round" stroke-linejoin="round"/>
</svg>
