<svg width="40" height="40" viewBox="0 0 40 40" fill="none" xmlns="http://www.w3.org/2000/svg">
<path d="M32.2698 5.00977H7.73977C6.23203 5.00977 5.00977 6.23203 5.00977 7.73977V32.2698C5.00977 33.7775 6.23203 34.9998 7.73977 34.9998H32.2698C33.7775 34.9998 34.9998 33.7775 34.9998 32.2698V7.73977C34.9998 6.23203 33.7775 5.00977 32.2698 5.00977Z" stroke="#0E2042" strokeWidth="1.5" strokeLinecap="round" strokeLinejoin="round"/>
<path d="M16.9004 11.9399H31.5104" stroke="#0E2042" strokeWidth="1.5" strokeLinecap="round" strokeLinejoin="round"/>
<path d="M8.08984 11.9399H11.9898C13.1398 11.9399 14.0798 11.0099 14.0798 9.84988V8.12988" stroke="#0E2042" strokeWidth="1.5" strokeLinecap="round" strokeLinejoin="round"/>
<path d="M20 31.7202C24.4183 31.7202 28 28.1385 28 23.7202C28 19.3019 24.4183 15.7202 20 15.7202C15.5817 15.7202 12 19.3019 12 23.7202C12 28.1385 15.5817 31.7202 20 31.7202Z" stroke="#0E2042" strokeWidth="1.5" strokeLinecap="round" strokeLinejoin="round"/>
<path d="M24.66 23.7201C24.66 21.1501 22.57 19.0601 20 19.0601" stroke="#0E2042" strokeWidth="1.5" strokeLinecap="round" strokeLinejoin="round"/>
<path d="M15.3398 23.7202C15.3398 26.2902 17.4298 28.3802 19.9998 28.3802" stroke="#0E2042" strokeWidth="1.5" strokeLinecap="round" strokeLinejoin="round"/>
</svg>
