<svg width="48" height="48" viewBox="0 0 48 48" fill="none" xmlns="http://www.w3.org/2000/svg">
<path d="M24 48C37.2548 48 48 37.2548 48 24C48 10.7452 37.2548 0 24 0C10.7452 0 0 10.7452 0 24C0 37.2548 10.7452 48 24 48Z" fill="#99B2C4"/>
<path d="M12.045 36.5537C12.225 36.8237 12.435 37.0862 12.675 37.3637C24.705 50.6612 47.88 34.1162 40.815 19.0937C39.5775 16.4612 35.4525 17.2487 35.415 20.1287C35.3775 22.7612 34.9725 26.2487 32.46 27.8987C29.43 29.8862 24.885 28.0187 21.4575 27.7712C16.5525 27.4187 8.72247 31.5962 12.045 36.5612V36.5537Z" fill="#F2F4F8"/>
</svg>
