<svg width="82" height="21" viewBox="0 0 82 21" fill="none" xmlns="http://www.w3.org/2000/svg">
<path d="M30.9721 19.4874V20.1789C30.9721 20.6283 30.6148 20.9855 30.1654 20.9855H16.7398C16.2904 20.9855 15.9332 20.6283 15.9332 20.1789V19.4874C15.9332 19.038 16.2904 18.6807 16.7398 18.6807H30.1654C30.6033 18.6692 30.9721 19.038 30.9721 19.4874ZM30.1654 9.84178H16.7398C16.2904 9.84178 15.9332 10.199 15.9332 10.6485V11.3399C15.9332 11.7893 16.2904 12.1466 16.7398 12.1466H30.1654C30.6148 12.1466 30.9721 11.7893 30.9721 11.3399V10.6485C30.9721 10.2106 30.6148 9.84178 30.1654 9.84178ZM30.1538 1.02588H16.7283C16.2789 1.02588 15.9216 1.38312 15.9216 1.83256V2.52401C15.9216 2.97344 16.2789 3.33069 16.7283 3.33069H30.1538C30.6033 3.33069 30.9605 2.97344 30.9605 2.52401V1.83256C30.9605 1.38312 30.6033 1.02588 30.1538 1.02588Z" fill="#F2F4F8"/>
<path d="M63.5124 20.9732C63.2128 20.9732 62.9247 20.858 62.6942 20.6275L54.0512 11.6388C53.717 11.3046 53.6248 10.809 53.7976 10.3711C53.9705 9.9332 54.3969 9.65662 54.8579 9.6451C57.9463 9.63357 59.2255 8.91908 59.7671 8.31983C60.1704 7.87039 60.3318 7.28267 60.2511 6.5336C60.0783 4.68975 58.3957 3.24925 56.4251 3.24925H50.1215C49.4877 3.24925 48.9691 2.73066 48.9691 2.08532C48.9691 1.43997 49.4877 0.921387 50.1215 0.921387H56.4251C59.5712 0.921387 62.2678 3.29534 62.5444 6.32617C62.6712 7.7321 62.3024 8.96518 61.4727 9.89863C60.7006 10.7514 59.5827 11.3507 58.0846 11.6733C57.8195 11.731 57.7158 12.0536 57.9002 12.2495L64.3076 18.9796C64.757 19.429 64.757 20.1666 64.3076 20.6275C64.1002 20.858 63.8005 20.9732 63.5124 20.9732ZM7.47095 0.932911H1.1673C0.533475 0.932911 0.0148926 1.46302 0.0148926 2.10837V19.8093C0.0148926 20.4547 0.533475 20.9848 1.1673 20.9848C1.80112 20.9848 2.3197 20.4547 2.3197 19.8093V3.62954C2.3197 3.43363 2.48104 3.2723 2.66542 3.2723H7.45943C9.43004 3.2723 11.1126 4.72433 11.2854 6.5797C11.3546 7.34029 11.1932 7.92801 10.8014 8.37745C10.2713 8.9767 8.98061 9.69119 5.89216 9.71424C5.25834 9.71424 4.73975 10.2443 4.75128 10.8897C4.75128 11.535 5.26986 12.0536 5.90368 12.0536C9.10737 12.0421 11.2624 11.3507 12.507 9.94472C13.3367 9.01127 13.717 7.76667 13.5787 6.34922C13.3137 3.31839 10.6285 0.932911 7.47095 0.932911ZM80.5335 0.932911C79.8996 0.932911 79.381 1.47454 79.381 2.13141V8.3544C79.381 9.04585 79.3926 8.98823 79.381 9.49529C79.3695 9.85253 79.1506 10.0023 78.8855 10.06C77.1223 10.1983 74.2413 10.4057 72.3859 9.73729C69.8046 8.80384 69.6086 6.2455 69.6086 2.44256V2.14294C69.6086 1.47454 69.0901 0.944435 68.4562 0.944435C67.8224 0.944435 67.3038 1.48606 67.3038 2.14294V2.44256C67.3038 5.81911 67.2923 10.4518 71.6254 12.0075C72.8123 12.4339 74.322 12.5837 75.9584 12.5837C76.9264 12.5837 77.9521 12.5261 78.9662 12.457C79.1736 12.4454 79.3349 12.6068 79.3349 12.8142C79.3349 13.4135 79.3349 14.1395 79.3349 15.0268C79.3349 15.8105 79.0238 16.4904 78.413 17.0781C77.3067 18.1383 75.3015 18.7261 73.4116 18.5417C71.4064 18.3458 70.0466 17.3777 69.1362 15.4763C68.8481 14.877 68.1566 14.6465 67.5919 14.9346C67.0273 15.2343 66.7968 15.9488 67.0734 16.548C68.341 19.187 70.4038 20.6621 73.2042 20.9387C73.5153 20.9732 73.8264 20.9848 74.1376 20.9848C76.3848 20.9848 78.5628 20.2011 79.9803 18.8643C81.0751 17.8157 81.6628 16.5019 81.6628 15.0384C81.6628 11.9153 81.6743 10.8206 81.6859 9.99082C81.6859 9.48376 81.6974 9.06889 81.6974 8.37745V2.15446C81.6859 1.46302 81.1673 0.932911 80.5335 0.932911ZM42.2275 12.3993C42.0316 12.2034 42.1353 11.8692 42.4119 11.8116C43.91 11.4774 45.0278 10.8782 45.8 10.0139C46.6297 9.06889 47.01 7.8243 46.8717 6.39531C46.5836 3.32991 43.8985 0.932911 40.7524 0.932911H34.4488C33.8149 0.932911 33.2964 1.46302 33.2964 2.10837V19.7978C33.2964 20.4547 33.8149 20.9732 34.4488 20.9732C35.0826 20.9732 35.6012 20.4431 35.6012 19.7978V3.65259C35.6012 3.45668 35.7625 3.29534 35.9469 3.29534H40.7409C42.7115 3.29534 44.394 4.7589 44.5669 6.6258C44.636 7.39791 44.4747 7.98563 44.0829 8.43507C43.5528 9.03432 42.2621 9.76034 39.1736 9.77186C38.7127 9.77186 38.2863 10.06 38.1134 10.4979C37.9406 10.9358 38.0327 11.4429 38.3669 11.777L47.01 20.616C47.4594 21.077 48.1854 21.077 48.6349 20.616C49.0843 20.155 49.0843 19.406 48.6349 18.945L42.2275 12.3993Z" fill="#F2F4F8"/>
</svg>
